<svg width="289" height="181" viewBox="0 0 289 181" fill="currentColor" xmlns="http://www.w3.org/2000/svg">
<path d="M0 110.625C0 71.7358 31.5993 40.2502 70.5244 40.25C74.3912 40.25 78.1922 40.5634 81.9014 41.1641C98.076 16.3953 126.093 0.000141352 157.95 0C200.55 0 236.302 29.3038 246.034 68.8447C270.758 75.1688 289 97.7956 289 124.04C289 152.641 267.839 176.935 240.063 180.899L239.36 181H70.5244C31.5993 181 0 149.514 0 110.625ZM20 110.625C20 138.422 42.5983 161 70.5244 161H237.888C255.426 158.166 269 142.529 269 124.04C269 105.476 254.735 89.5397 236.402 87.3477L228.936 86.4551L227.721 79.0352C222.24 45.5722 193.094 20 157.95 20C130.991 20.0002 107.55 35.0452 95.6143 57.2021L91.8262 64.2344L84.1299 62.0938C79.8155 60.8939 75.2532 60.25 70.5244 60.25C42.5983 60.2502 20 82.8282 20 110.625Z" fill="currentColor" style="fill:currentColor"/>
</svg>
