<svg width="199" height="251" viewBox="0 0 199 251" fill="currentColor" xmlns="http://www.w3.org/2000/svg">
<path d="M99.2039 250.857C81.1328 250.857 63.0489 251.115 44.9778 250.741C37.253 250.573 29.3882 249.798 21.8798 248.03C8.00825 244.738 0.919778 235.379 0.11803 220.998C-1.80362 186.686 19.9072 157.834 52.9952 150.824C55.8586 150.217 58.8493 149.921 61.7763 149.921C85.8542 149.856 109.919 149.921 133.997 149.869C155.046 149.817 171.947 158.634 184.902 175.055C196.088 189.229 200.721 205.662 198.43 223.722C196.648 237.832 189.382 245.358 175.535 248.624C165.507 250.986 155.301 250.934 145.107 250.973C129.81 251.025 114.501 250.986 99.1912 250.986C99.1912 250.947 99.1912 250.909 99.1912 250.87L99.2039 250.857Z" fill="currentColor" style="fill:currentColor"/>
<path d="M100.325 139.826C81.0962 139.438 66.0412 131.912 54.4349 117.157C50.4007 112.019 47.83 106.598 48.6063 99.7299C49.0899 95.4312 48.6572 91.0163 48.7081 86.6659C48.7718 81.6959 47.5119 77.1906 44.5339 73.163C44.0122 72.453 43.9358 71.1491 44.114 70.2068C48.6063 47.1511 68.0137 28.6007 91.0481 25.2572C120.318 21.0101 147.425 39.496 154.603 68.5415C155.137 70.7231 155.252 72.5304 153.674 74.5313C151.014 77.9006 150.276 82.0444 150.288 86.3303C150.314 92.7848 150.301 99.2265 150.288 105.681C150.288 109.928 147.336 114.214 143.391 115.582C141.024 116.396 138.618 117.106 136.175 117.687C133.235 118.384 130.41 119.081 127.483 116.938C126.045 115.879 123.754 115.763 121.833 115.647C118.537 115.453 115.215 115.569 111.894 115.595C100.109 115.699 93.3515 127.652 99.231 137.954C99.4855 138.406 99.7528 138.845 100.325 139.839V139.826Z" fill="currentColor" style="fill:currentColor"/>
<path d="M157.235 116.525C157.235 112.045 157.235 108.34 157.235 104.648C157.235 98.6584 157.273 92.6557 157.235 86.6659C157.184 81.6829 158.915 77.694 162.974 74.712C163.674 74.1956 164.107 72.724 163.992 71.7687C161.002 45.1372 147.321 26.2253 122.887 16.2982C83.9193 0.471649 40.4594 26.8837 35.1144 69.0836C34.7581 71.872 34.4527 74.3118 37.5706 76.2482C40.3704 77.9909 41.5793 81.3344 41.6175 84.7682C41.6811 93.753 41.8593 102.751 41.5921 111.735C41.3757 119.003 35.8653 123.922 28.7132 123.909C21.6374 123.883 16.0761 118.861 15.8598 111.645C15.5925 102.751 15.6943 93.8433 15.8598 84.9489C15.9361 80.7147 18.0359 77.41 21.3956 74.8411C22.2356 74.1956 23.05 72.9305 23.1137 71.8978C25.4171 36.9399 52.0021 6.99076 86.0827 1.14292C127.455 -5.97 166.169 20.8035 174.555 62.3451C174.873 63.9458 175.115 65.5594 175.28 67.186C175.662 70.9038 175.84 74.4022 179.595 76.9066C182.534 78.8558 183.158 82.6382 183.171 86.214C183.196 94.2951 183.247 102.376 183.171 110.457C183.056 120.72 173.982 126.658 164.59 122.798C163.776 122.463 162.44 122.476 161.753 122.94C152.259 129.305 141.683 132.261 130.535 133.642C129.441 133.771 128.435 134.662 127.379 135.165C125.419 136.108 123.536 137.554 121.487 137.851C118.331 138.302 115.06 138.031 111.84 137.954C107.297 137.838 104.052 134.61 104.001 130.325C103.963 126.064 107.234 122.773 111.751 122.669C114.793 122.592 117.873 122.347 120.863 122.747C123.027 123.044 125.076 124.27 127.176 125.096C127.875 125.367 128.588 126.013 129.237 125.935C139.494 124.825 149.217 122.037 157.235 116.538V116.525Z" fill="currentColor" style="fill:currentColor"/>
</svg>
