<svg width="222" height="173" viewBox="0 0 222 173" fill="currentColor" xmlns="http://www.w3.org/2000/svg">
<path d="M3.35924 41.4623C-0.790974 45.2106 -1.14415 51.6441 2.57041 55.832C6.28486 60.0199 12.6605 60.3763 16.8106 56.628L3.35924 41.4623ZM205.056 56.628C209.206 60.3763 215.582 60.0199 219.296 55.832C223.011 51.6441 222.657 45.2106 218.507 41.4623L205.056 56.628ZM110.933 152.647C105.364 152.647 100.849 157.203 100.849 162.824C100.849 168.444 105.364 173 110.933 173V152.647ZM111.034 173C116.604 173 121.119 168.444 121.119 162.824C121.119 157.203 116.604 152.647 111.034 152.647V173ZM138.067 132.701C142.186 136.483 148.565 136.178 152.312 132.021C156.061 127.863 155.758 121.428 151.639 117.645L138.067 132.701ZM171.986 95.0513C176.106 98.8329 182.484 98.5286 186.232 94.3705C189.979 90.2134 189.678 83.7768 185.558 79.9952L171.986 95.0513ZM70.2281 117.645C66.1079 121.428 65.8061 127.863 69.5539 132.021C73.3018 136.178 79.6799 136.483 83.8001 132.701L70.2281 117.645ZM36.3089 79.9952C32.1888 83.7768 31.8868 90.2134 35.6347 94.3705C39.3825 98.5286 45.7607 98.8329 49.8808 95.0513L36.3089 79.9952ZM16.8106 56.628C41.7961 34.0623 74.7662 20.3529 110.933 20.3529V0C69.6132 0 31.8996 15.6858 3.35924 41.4623L16.8106 56.628ZM110.933 20.3529C147.101 20.3529 180.071 34.0623 205.056 56.628L218.507 41.4623C189.967 15.6858 152.253 0 110.933 0V20.3529ZM110.933 173H111.034V152.647H110.933V173ZM110.933 122.118C121.388 122.118 130.894 126.118 138.067 132.701L151.639 117.645C140.898 107.787 126.601 101.765 110.933 101.765V122.118ZM110.933 71.2353C134.45 71.2353 155.857 80.2466 171.986 95.0513L185.558 79.9952C165.861 61.9157 139.662 50.8824 110.933 50.8824V71.2353ZM83.8001 132.701C90.9724 126.118 100.478 122.118 110.933 122.118V101.765C95.2656 101.765 80.9685 107.787 70.2281 117.645L83.8001 132.701ZM49.8808 95.0513C66.0098 80.2466 87.417 71.2353 110.933 71.2353V50.8824C82.2044 50.8824 56.0057 61.9157 36.3089 79.9952L49.8808 95.0513Z" fill="currentColor" style="fill:currentColor"/>
</svg>
