<svg width="429" height="119" viewBox="0 0 429 119" fill="none" xmlns="http://www.w3.org/2000/svg">
<path d="M136.231 110.166C136.231 110.792 136.112 111.337 135.895 111.822C135.677 112.306 135.361 112.71 134.946 113.053C134.531 113.376 134.037 113.638 133.463 113.8C132.89 113.961 132.258 114.062 131.585 114.062C131.17 114.062 130.755 114.022 130.38 113.961C130.004 113.901 129.648 113.8 129.352 113.699C129.055 113.598 128.798 113.497 128.581 113.376C128.364 113.255 128.225 113.154 128.126 113.073C128.028 112.992 127.968 112.851 127.909 112.69C127.869 112.528 127.85 112.306 127.85 112.023C127.85 111.862 127.85 111.7 127.869 111.599C127.869 111.478 127.909 111.398 127.929 111.317C127.948 111.236 127.988 111.196 128.047 111.155C128.107 111.115 128.146 111.115 128.205 111.115C128.304 111.115 128.443 111.175 128.64 111.297C128.838 111.418 129.055 111.559 129.332 111.7C129.609 111.842 129.945 111.983 130.32 112.104C130.696 112.225 131.131 112.286 131.625 112.286C132.001 112.286 132.317 112.245 132.633 112.165C132.949 112.084 133.187 111.963 133.404 111.801C133.621 111.64 133.799 111.438 133.918 111.196C134.037 110.953 134.096 110.671 134.096 110.328C134.096 109.984 134.017 109.702 133.839 109.46C133.661 109.217 133.444 109.015 133.167 108.834C132.89 108.652 132.574 108.49 132.218 108.349C131.862 108.208 131.506 108.067 131.131 107.905C130.755 107.744 130.399 107.582 130.044 107.38C129.688 107.178 129.372 106.956 129.095 106.674C128.818 106.391 128.581 106.068 128.423 105.684C128.245 105.301 128.166 104.836 128.166 104.291C128.166 103.827 128.265 103.363 128.443 102.919C128.621 102.495 128.897 102.111 129.253 101.768C129.609 101.445 130.063 101.182 130.597 100.981C131.131 100.779 131.763 100.678 132.495 100.678C132.811 100.678 133.127 100.698 133.444 100.758C133.76 100.819 134.037 100.88 134.293 100.96C134.55 101.041 134.768 101.122 134.946 101.223C135.124 101.324 135.262 101.405 135.361 101.465C135.46 101.546 135.519 101.606 135.539 101.647C135.559 101.687 135.598 101.768 135.598 101.828C135.598 101.889 135.618 101.97 135.638 102.071C135.638 102.172 135.657 102.293 135.657 102.434C135.657 102.596 135.657 102.717 135.638 102.838C135.638 102.959 135.598 103.04 135.578 103.12C135.559 103.201 135.519 103.242 135.46 103.282C135.42 103.322 135.361 103.322 135.321 103.322C135.242 103.322 135.124 103.282 134.985 103.181C134.827 103.08 134.649 102.979 134.412 102.858C134.175 102.737 133.898 102.636 133.582 102.535C133.266 102.434 132.89 102.394 132.475 102.394C132.099 102.394 131.783 102.434 131.506 102.515C131.23 102.596 130.992 102.717 130.815 102.878C130.637 103.04 130.498 103.221 130.399 103.443C130.301 103.666 130.261 103.888 130.261 104.15C130.261 104.493 130.34 104.796 130.518 105.038C130.696 105.281 130.913 105.482 131.21 105.664C131.506 105.846 131.803 106.007 132.178 106.149C132.534 106.29 132.91 106.431 133.285 106.593C133.661 106.754 134.037 106.916 134.392 107.098C134.748 107.279 135.084 107.521 135.361 107.784C135.638 108.046 135.875 108.369 136.033 108.753C136.211 109.137 136.29 109.581 136.29 110.106L136.231 110.166Z" fill="white" style="fill:white;fill-opacity:1;"/>
<path d="M149.475 113.456C149.475 113.456 149.475 113.597 149.435 113.637C149.396 113.678 149.356 113.718 149.277 113.758C149.198 113.799 149.099 113.819 148.961 113.839C148.823 113.859 148.684 113.859 148.487 113.859C148.289 113.859 148.111 113.859 147.992 113.839C147.874 113.839 147.755 113.799 147.696 113.758C147.637 113.718 147.577 113.678 147.538 113.637C147.518 113.597 147.498 113.536 147.498 113.456V111.861C146.826 112.628 146.154 113.173 145.502 113.536C144.85 113.88 144.177 114.061 143.505 114.061C142.715 114.061 142.043 113.92 141.509 113.658C140.975 113.395 140.54 113.032 140.204 112.567C139.868 112.103 139.631 111.578 139.493 110.952C139.354 110.347 139.275 109.6 139.275 108.711V101.383C139.275 101.383 139.275 101.242 139.315 101.202C139.354 101.161 139.414 101.101 139.493 101.06C139.572 101.02 139.69 101 139.829 100.979C139.967 100.979 140.145 100.979 140.363 100.979C140.58 100.979 140.758 100.979 140.896 100.979C141.035 100.979 141.153 101.02 141.232 101.06C141.311 101.101 141.371 101.141 141.41 101.202C141.45 101.242 141.469 101.303 141.469 101.383V108.429C141.469 109.135 141.529 109.701 141.628 110.125C141.726 110.549 141.885 110.912 142.082 111.215C142.28 111.518 142.557 111.74 142.873 111.921C143.189 112.083 143.565 112.164 143.98 112.164C144.513 112.164 145.067 111.962 145.601 111.578C146.134 111.195 146.708 110.609 147.32 109.842V101.383C147.32 101.383 147.32 101.242 147.36 101.202C147.399 101.161 147.459 101.101 147.538 101.06C147.617 101.02 147.735 101 147.874 100.979C148.012 100.979 148.19 100.979 148.408 100.979C148.625 100.979 148.803 100.979 148.941 100.979C149.08 100.979 149.198 101.02 149.277 101.06C149.356 101.101 149.416 101.141 149.455 101.202C149.495 101.262 149.514 101.303 149.514 101.383V113.476L149.475 113.456Z" fill="white" style="fill:white;fill-opacity:1;"/>
<path d="M162.421 113.476C162.421 113.577 162.381 113.658 162.322 113.718C162.243 113.779 162.164 113.819 162.025 113.839C161.907 113.86 161.729 113.88 161.492 113.88C161.254 113.88 161.077 113.88 160.938 113.839C160.8 113.819 160.701 113.779 160.642 113.718C160.582 113.658 160.543 113.577 160.543 113.476V112.265C160.029 112.83 159.456 113.274 158.803 113.577C158.151 113.88 157.499 114.041 156.787 114.041C156.174 114.041 155.601 113.961 155.087 113.799C154.593 113.638 154.158 113.395 153.802 113.072C153.447 112.749 153.17 112.366 152.972 111.922C152.775 111.457 152.676 110.953 152.676 110.367C152.676 109.681 152.814 109.095 153.091 108.591C153.368 108.086 153.743 107.662 154.257 107.339C154.771 107.016 155.384 106.753 156.135 106.592C156.866 106.43 157.696 106.35 158.625 106.35H160.266V105.401C160.266 104.937 160.227 104.533 160.128 104.169C160.029 103.806 159.871 103.503 159.653 103.281C159.436 103.039 159.159 102.857 158.823 102.736C158.487 102.615 158.052 102.554 157.558 102.554C157.024 102.554 156.55 102.615 156.115 102.756C155.68 102.877 155.324 103.019 154.988 103.18C154.672 103.342 154.395 103.483 154.178 103.604C153.961 103.725 153.802 103.806 153.704 103.806C153.625 103.806 153.565 103.806 153.526 103.745C153.466 103.705 153.427 103.665 153.387 103.584C153.348 103.503 153.328 103.422 153.308 103.301C153.308 103.18 153.289 103.059 153.289 102.938C153.289 102.716 153.289 102.534 153.328 102.413C153.368 102.292 153.427 102.171 153.546 102.05C153.664 101.929 153.862 101.787 154.158 101.646C154.455 101.484 154.771 101.343 155.166 101.222C155.542 101.101 155.957 100.98 156.412 100.899C156.866 100.818 157.301 100.778 157.776 100.778C158.625 100.778 159.357 100.879 159.95 101.081C160.543 101.283 161.037 101.565 161.393 101.949C161.749 102.332 162.025 102.797 162.203 103.362C162.361 103.927 162.46 104.593 162.46 105.34V113.496L162.421 113.476ZM160.266 107.945H158.408C157.815 107.945 157.301 108.005 156.847 108.106C156.412 108.207 156.036 108.369 155.759 108.57C155.463 108.772 155.265 109.015 155.127 109.297C154.988 109.58 154.929 109.903 154.929 110.266C154.929 110.892 155.127 111.397 155.522 111.76C155.917 112.123 156.451 112.325 157.163 112.325C157.736 112.325 158.27 112.184 158.744 111.881C159.238 111.578 159.732 111.134 160.286 110.529V107.965L160.266 107.945Z" fill="white" style="fill:white;fill-opacity:1;"/>
<path d="M182.602 106.875C182.602 107.218 182.523 107.48 182.345 107.622C182.167 107.763 181.97 107.844 181.752 107.844H173.945C173.945 108.51 174.004 109.116 174.142 109.661C174.281 110.206 174.498 110.67 174.795 111.054C175.111 111.437 175.506 111.74 176 111.942C176.494 112.144 177.107 112.245 177.819 112.245C178.392 112.245 178.886 112.204 179.321 112.103C179.756 112.003 180.151 111.902 180.467 111.78C180.784 111.659 181.06 111.558 181.258 111.457C181.456 111.357 181.614 111.316 181.733 111.316C181.792 111.316 181.851 111.316 181.891 111.357C181.93 111.397 181.97 111.437 182.009 111.498C182.029 111.558 182.049 111.639 182.069 111.76C182.088 111.881 182.088 112.003 182.088 112.164C182.088 112.285 182.088 112.386 182.088 112.467C182.088 112.548 182.069 112.628 182.049 112.689C182.049 112.749 182.009 112.81 181.989 112.871C181.95 112.931 181.91 112.972 181.871 113.032C181.831 113.073 181.673 113.153 181.436 113.274C181.199 113.396 180.883 113.496 180.507 113.597C180.131 113.698 179.697 113.799 179.202 113.88C178.708 113.961 178.175 114.001 177.621 114.001C176.653 114.001 175.803 113.86 175.071 113.577C174.34 113.295 173.727 112.891 173.213 112.346C172.699 111.801 172.343 111.114 172.086 110.287C171.83 109.459 171.711 108.51 171.711 107.42C171.711 106.33 171.849 105.441 172.106 104.614C172.363 103.786 172.759 103.079 173.253 102.494C173.747 101.909 174.34 101.464 175.051 101.162C175.743 100.859 176.534 100.697 177.404 100.697C178.333 100.697 179.123 100.859 179.776 101.162C180.428 101.464 180.962 101.868 181.396 102.393C181.812 102.898 182.128 103.503 182.326 104.21C182.523 104.896 182.622 105.643 182.622 106.431V106.834L182.602 106.875ZM180.428 106.229C180.448 105.058 180.191 104.149 179.657 103.483C179.123 102.817 178.333 102.494 177.285 102.494C176.751 102.494 176.277 102.595 175.862 102.797C175.447 102.999 175.111 103.281 174.834 103.625C174.557 103.968 174.34 104.371 174.202 104.816C174.043 105.26 173.964 105.744 173.945 106.229H180.408H180.428Z" fill="white" style="fill:white;fill-opacity:1;"/>
<path d="M203.477 113.457C203.477 113.457 203.477 113.598 203.418 113.638C203.359 113.679 203.319 113.719 203.24 113.759C203.161 113.8 203.042 113.82 202.904 113.84C202.766 113.84 202.588 113.86 202.37 113.86C202.153 113.86 201.975 113.86 201.837 113.84C201.698 113.84 201.58 113.8 201.501 113.759C201.421 113.719 201.362 113.679 201.323 113.638C201.283 113.598 201.263 113.537 201.263 113.457V106.108C201.263 105.603 201.224 105.139 201.125 104.715C201.046 104.291 200.888 103.928 200.71 103.625C200.512 103.322 200.275 103.08 199.978 102.918C199.682 102.757 199.326 102.676 198.931 102.676C198.437 102.676 197.923 102.878 197.429 103.262C196.934 103.645 196.361 104.231 195.768 104.998V113.457C195.768 113.457 195.768 113.598 195.709 113.638C195.669 113.679 195.61 113.719 195.531 113.759C195.452 113.8 195.333 113.82 195.195 113.84C195.057 113.84 194.879 113.86 194.661 113.86C194.444 113.86 194.286 113.86 194.147 113.84C194.009 113.82 193.89 113.8 193.811 113.759C193.732 113.719 193.673 113.679 193.633 113.638C193.594 113.598 193.594 113.537 193.594 113.457V106.108C193.594 105.603 193.554 105.139 193.456 104.715C193.357 104.291 193.218 103.928 193.021 103.625C192.823 103.322 192.586 103.08 192.289 102.918C191.993 102.757 191.637 102.676 191.242 102.676C190.748 102.676 190.234 102.878 189.72 103.262C189.206 103.645 188.652 104.231 188.059 104.998V113.457C188.059 113.457 188.059 113.598 188 113.638C187.96 113.679 187.901 113.719 187.822 113.759C187.743 113.8 187.624 113.82 187.486 113.84C187.348 113.84 187.17 113.86 186.952 113.86C186.735 113.86 186.557 113.86 186.419 113.84C186.28 113.84 186.162 113.8 186.083 113.759C186.004 113.719 185.944 113.679 185.905 113.638C185.865 113.598 185.865 113.537 185.865 113.457V101.364C185.865 101.364 185.865 101.223 185.905 101.182C185.944 101.142 185.984 101.081 186.063 101.041C186.142 101.001 186.241 100.98 186.359 100.96C186.478 100.94 186.636 100.96 186.854 100.96C187.071 100.96 187.209 100.96 187.328 100.96C187.447 100.96 187.545 101.001 187.624 101.041C187.704 101.081 187.743 101.122 187.783 101.182C187.822 101.243 187.822 101.283 187.822 101.364V102.959C188.494 102.192 189.127 101.647 189.759 101.283C190.392 100.94 191.024 100.758 191.657 100.758C192.151 100.758 192.586 100.819 192.981 100.94C193.376 101.061 193.713 101.223 194.009 101.425C194.306 101.626 194.562 101.889 194.78 102.171C194.997 102.454 195.155 102.797 195.314 103.14C195.709 102.696 196.084 102.333 196.44 102.03C196.796 101.727 197.132 101.485 197.468 101.283C197.804 101.101 198.12 100.96 198.437 100.879C198.753 100.799 199.069 100.758 199.386 100.758C200.156 100.758 200.789 100.9 201.303 101.162C201.817 101.425 202.232 101.808 202.568 102.252C202.884 102.717 203.121 103.241 203.26 103.847C203.398 104.453 203.457 105.099 203.457 105.785V113.436L203.477 113.457Z" fill="white" style="fill:white;fill-opacity:1;"/>
<path d="M218.341 107.218C218.341 108.268 218.222 109.217 218.005 110.065C217.787 110.913 217.451 111.619 217.016 112.205C216.582 112.79 216.048 113.234 215.396 113.557C214.763 113.88 214.032 114.042 213.201 114.042C212.846 114.042 212.529 114.001 212.233 113.941C211.936 113.88 211.64 113.759 211.363 113.598C211.086 113.436 210.79 113.254 210.513 113.012C210.237 112.77 209.94 112.507 209.624 112.184V118.241C209.624 118.241 209.624 118.382 209.564 118.422C209.525 118.483 209.466 118.523 209.387 118.564C209.307 118.604 209.189 118.624 209.051 118.645C208.912 118.645 208.734 118.665 208.517 118.665C208.299 118.665 208.122 118.665 207.983 118.645C207.845 118.645 207.726 118.604 207.647 118.564C207.568 118.523 207.509 118.483 207.469 118.422C207.43 118.362 207.43 118.301 207.43 118.241V101.343C207.43 101.343 207.43 101.202 207.469 101.142C207.509 101.081 207.548 101.041 207.627 101.02C207.706 100.98 207.805 100.96 207.924 100.94C208.042 100.919 208.201 100.94 208.378 100.94C208.556 100.94 208.715 100.94 208.833 100.94C208.952 100.94 209.051 100.98 209.13 101.02C209.209 101.061 209.268 101.101 209.288 101.142C209.307 101.182 209.327 101.263 209.327 101.343V102.979C209.683 102.595 210.039 102.272 210.375 101.989C210.711 101.707 211.047 101.485 211.383 101.303C211.719 101.121 212.075 100.98 212.431 100.879C212.786 100.778 213.162 100.738 213.557 100.738C214.427 100.738 215.158 100.899 215.751 101.242C216.364 101.586 216.858 102.05 217.234 102.635C217.609 103.221 217.886 103.907 218.064 104.695C218.242 105.482 218.321 106.31 218.321 107.178L218.341 107.218ZM216.087 107.481C216.087 106.855 216.048 106.269 215.949 105.684C215.85 105.098 215.692 104.594 215.475 104.15C215.257 103.705 214.941 103.342 214.565 103.08C214.19 102.817 213.715 102.676 213.142 102.676C212.865 102.676 212.589 102.716 212.312 102.797C212.035 102.878 211.759 103.019 211.482 103.201C211.205 103.382 210.909 103.625 210.592 103.927C210.276 104.23 209.96 104.594 209.604 105.038V109.843C210.197 110.59 210.77 111.155 211.304 111.538C211.838 111.942 212.411 112.124 213.004 112.124C213.557 112.124 214.012 111.983 214.407 111.72C214.803 111.458 215.119 111.094 215.356 110.65C215.593 110.206 215.771 109.701 215.89 109.136C216.008 108.571 216.068 108.026 216.068 107.46L216.087 107.481Z" fill="white" style="fill:white;fill-opacity:1;"/>
<path d="M228.52 102.151C228.52 102.353 228.52 102.515 228.52 102.656C228.52 102.797 228.501 102.898 228.461 102.979C228.441 103.06 228.402 103.12 228.362 103.161C228.323 103.201 228.263 103.221 228.204 103.221C228.145 103.221 228.046 103.221 227.947 103.161C227.848 103.12 227.73 103.08 227.611 103.04C227.492 102.999 227.334 102.959 227.176 102.918C227.018 102.878 226.84 102.858 226.662 102.858C226.445 102.858 226.227 102.898 226.01 102.999C225.793 103.08 225.575 103.241 225.338 103.443C225.101 103.645 224.864 103.928 224.607 104.271C224.35 104.614 224.073 105.038 223.757 105.523V113.477C223.757 113.477 223.757 113.618 223.697 113.658C223.658 113.699 223.598 113.739 223.519 113.78C223.44 113.82 223.322 113.84 223.183 113.86C223.045 113.86 222.867 113.88 222.65 113.88C222.432 113.88 222.254 113.881 222.116 113.86C221.978 113.86 221.859 113.82 221.78 113.78C221.701 113.739 221.642 113.699 221.602 113.658C221.563 113.618 221.562 113.557 221.562 113.477V101.384C221.562 101.384 221.563 101.243 221.602 101.202C221.642 101.162 221.681 101.101 221.76 101.061C221.839 101.021 221.938 101.001 222.057 100.98C222.175 100.96 222.333 100.98 222.551 100.98C222.768 100.98 222.907 100.98 223.025 100.98C223.144 100.98 223.243 101.021 223.322 101.061C223.401 101.101 223.44 101.142 223.48 101.202C223.519 101.263 223.519 101.303 223.519 101.384V103.14C223.836 102.656 224.152 102.272 224.429 101.949C224.705 101.647 224.982 101.404 225.239 101.223C225.496 101.041 225.753 100.92 225.99 100.859C226.227 100.799 226.484 100.758 226.741 100.758C226.86 100.758 226.979 100.758 227.137 100.758C227.275 100.758 227.433 100.799 227.591 100.839C227.749 100.879 227.888 100.92 228.026 100.96C228.145 101.001 228.244 101.041 228.303 101.102C228.362 101.142 228.382 101.182 228.402 101.223C228.402 101.263 228.441 101.324 228.441 101.384C228.441 101.445 228.461 101.546 228.461 101.667C228.461 101.788 228.461 101.949 228.461 102.151H228.52Z" fill="white" style="fill:white;fill-opacity:1;"/>
<path d="M240.735 106.875C240.735 107.218 240.656 107.48 240.478 107.622C240.3 107.763 240.103 107.844 239.885 107.844H232.077C232.077 108.51 232.137 109.116 232.275 109.661C232.413 110.206 232.631 110.67 232.927 111.054C233.244 111.437 233.639 111.74 234.133 111.942C234.627 112.144 235.24 112.245 235.952 112.245C236.525 112.245 237.019 112.204 237.454 112.103C237.889 112.003 238.284 111.902 238.6 111.78C238.917 111.659 239.193 111.558 239.391 111.457C239.589 111.357 239.747 111.316 239.865 111.316C239.925 111.316 239.984 111.316 240.023 111.357C240.063 111.397 240.103 111.437 240.142 111.498C240.162 111.558 240.182 111.639 240.201 111.76C240.221 111.881 240.221 112.003 240.221 112.164C240.221 112.285 240.221 112.386 240.221 112.467C240.221 112.548 240.201 112.628 240.182 112.689C240.182 112.749 240.142 112.81 240.122 112.871C240.083 112.931 240.043 112.972 240.004 113.032C239.964 113.073 239.806 113.153 239.569 113.274C239.332 113.396 239.015 113.496 238.64 113.597C238.264 113.698 237.829 113.799 237.335 113.88C236.841 113.961 236.307 114.001 235.754 114.001C234.785 114.001 233.935 113.86 233.204 113.577C232.473 113.295 231.86 112.891 231.346 112.346C230.832 111.801 230.476 111.114 230.219 110.287C229.962 109.459 229.844 108.51 229.844 107.42C229.844 106.33 229.982 105.441 230.239 104.614C230.496 103.786 230.891 103.079 231.386 102.494C231.88 101.909 232.473 101.464 233.184 101.162C233.876 100.859 234.667 100.697 235.537 100.697C236.466 100.697 237.256 100.859 237.908 101.162C238.561 101.464 239.094 101.868 239.529 102.393C239.944 102.898 240.261 103.503 240.458 104.21C240.656 104.896 240.755 105.643 240.755 106.431V106.834L240.735 106.875ZM238.561 106.229C238.581 105.058 238.324 104.149 237.79 103.483C237.256 102.817 236.466 102.494 235.418 102.494C234.884 102.494 234.41 102.595 233.995 102.797C233.58 102.999 233.244 103.281 232.967 103.625C232.69 103.968 232.473 104.371 232.334 104.816C232.176 105.26 232.097 105.744 232.077 106.229H238.541H238.561Z" fill="white" style="fill:white;fill-opacity:1;"/>
<path d="M251.488 110.166C251.488 110.792 251.37 111.337 251.152 111.822C250.935 112.306 250.619 112.71 250.204 113.053C249.788 113.376 249.294 113.638 248.721 113.8C248.148 113.961 247.515 114.062 246.843 114.062C246.428 114.062 246.013 114.022 245.638 113.961C245.262 113.901 244.906 113.8 244.61 113.699C244.313 113.598 244.056 113.497 243.839 113.376C243.621 113.255 243.483 113.154 243.384 113.073C243.285 112.992 243.226 112.851 243.167 112.69C243.127 112.528 243.107 112.306 243.107 112.023C243.107 111.862 243.107 111.7 243.127 111.599C243.127 111.478 243.167 111.398 243.186 111.317C243.206 111.236 243.246 111.196 243.305 111.155C243.364 111.115 243.404 111.115 243.463 111.115C243.562 111.115 243.7 111.175 243.898 111.297C244.096 111.418 244.313 111.559 244.59 111.7C244.867 111.842 245.203 111.983 245.578 112.104C245.954 112.225 246.389 112.286 246.883 112.286C247.258 112.286 247.575 112.245 247.891 112.165C248.207 112.084 248.444 111.963 248.662 111.801C248.879 111.64 249.057 111.438 249.176 111.196C249.294 110.953 249.354 110.671 249.354 110.328C249.354 109.984 249.275 109.702 249.097 109.46C248.919 109.217 248.701 109.015 248.425 108.834C248.148 108.652 247.832 108.49 247.476 108.349C247.12 108.208 246.764 108.067 246.389 107.905C246.013 107.744 245.657 107.582 245.302 107.38C244.946 107.178 244.629 106.956 244.353 106.674C244.076 106.391 243.839 106.068 243.681 105.684C243.503 105.301 243.424 104.836 243.424 104.291C243.424 103.827 243.523 103.363 243.7 102.919C243.878 102.495 244.155 102.111 244.511 101.768C244.867 101.445 245.321 101.182 245.855 100.981C246.389 100.779 247.021 100.678 247.753 100.678C248.069 100.678 248.385 100.698 248.701 100.758C249.018 100.819 249.294 100.88 249.551 100.96C249.808 101.041 250.026 101.122 250.204 101.223C250.381 101.324 250.52 101.405 250.619 101.465C250.718 101.546 250.777 101.606 250.797 101.647C250.816 101.687 250.856 101.768 250.856 101.828C250.856 101.889 250.876 101.97 250.895 102.071C250.895 102.172 250.915 102.293 250.915 102.434C250.915 102.596 250.915 102.717 250.895 102.838C250.895 102.959 250.856 103.04 250.836 103.12C250.816 103.201 250.777 103.242 250.718 103.282C250.678 103.322 250.619 103.322 250.579 103.322C250.5 103.322 250.381 103.282 250.243 103.181C250.085 103.08 249.907 102.979 249.67 102.858C249.433 102.737 249.156 102.636 248.84 102.535C248.523 102.434 248.148 102.394 247.733 102.394C247.357 102.394 247.041 102.434 246.764 102.515C246.487 102.596 246.25 102.717 246.072 102.878C245.894 103.04 245.756 103.221 245.657 103.443C245.558 103.666 245.519 103.888 245.519 104.15C245.519 104.493 245.598 104.796 245.776 105.038C245.954 105.281 246.171 105.482 246.468 105.664C246.764 105.846 247.061 106.007 247.436 106.149C247.792 106.29 248.168 106.431 248.543 106.593C248.919 106.754 249.294 106.916 249.65 107.098C250.006 107.279 250.342 107.521 250.619 107.784C250.895 108.046 251.133 108.369 251.291 108.753C251.469 109.137 251.548 109.581 251.548 110.106L251.488 110.166Z" fill="white" style="fill:white;fill-opacity:1;"/>
<path d="M263.507 113.476C263.507 113.577 263.467 113.658 263.408 113.718C263.329 113.779 263.25 113.819 263.111 113.839C262.993 113.86 262.815 113.88 262.578 113.88C262.34 113.88 262.162 113.88 262.024 113.839C261.886 113.819 261.787 113.779 261.728 113.718C261.668 113.658 261.629 113.577 261.629 113.476V112.265C261.115 112.83 260.542 113.274 259.889 113.577C259.237 113.88 258.585 114.041 257.873 114.041C257.26 114.041 256.687 113.961 256.173 113.799C255.679 113.638 255.244 113.395 254.888 113.072C254.533 112.749 254.256 112.366 254.058 111.922C253.861 111.457 253.762 110.953 253.762 110.367C253.762 109.681 253.9 109.095 254.177 108.591C254.454 108.086 254.829 107.662 255.343 107.339C255.857 107.016 256.47 106.753 257.221 106.592C257.952 106.43 258.782 106.35 259.711 106.35H261.352V105.401C261.352 104.937 261.312 104.533 261.214 104.169C261.115 103.806 260.957 103.503 260.739 103.281C260.522 103.039 260.245 102.857 259.909 102.736C259.573 102.615 259.138 102.554 258.644 102.554C258.11 102.554 257.636 102.615 257.201 102.756C256.766 102.877 256.41 103.019 256.074 103.18C255.758 103.342 255.481 103.483 255.264 103.604C255.047 103.725 254.888 103.806 254.79 103.806C254.71 103.806 254.651 103.806 254.612 103.745C254.552 103.705 254.513 103.665 254.473 103.584C254.434 103.503 254.414 103.422 254.394 103.301C254.394 103.18 254.374 103.059 254.374 102.938C254.374 102.716 254.374 102.534 254.414 102.413C254.454 102.292 254.513 102.171 254.631 102.05C254.75 101.929 254.948 101.787 255.244 101.646C255.541 101.484 255.857 101.343 256.252 101.222C256.628 101.101 257.043 100.98 257.498 100.899C257.952 100.818 258.387 100.778 258.861 100.778C259.711 100.778 260.443 100.879 261.036 101.081C261.629 101.283 262.123 101.565 262.479 101.949C262.835 102.332 263.111 102.797 263.289 103.362C263.447 103.927 263.546 104.593 263.546 105.34V113.496L263.507 113.476ZM261.352 107.945H259.494C258.901 107.945 258.387 108.005 257.932 108.106C257.498 108.207 257.122 108.369 256.845 108.57C256.549 108.772 256.351 109.015 256.213 109.297C256.074 109.58 256.015 109.903 256.015 110.266C256.015 110.892 256.213 111.397 256.608 111.76C257.003 112.123 257.537 112.325 258.249 112.325C258.822 112.325 259.356 112.184 259.83 111.881C260.324 111.578 260.818 111.134 261.372 110.529V107.965L261.352 107.945Z" fill="white" style="fill:white;fill-opacity:1;"/>
<path d="M281.02 110.166C281.02 110.792 280.901 111.337 280.684 111.822C280.466 112.306 280.15 112.71 279.735 113.053C279.32 113.376 278.826 113.638 278.252 113.8C277.679 113.961 277.047 114.062 276.375 114.062C275.959 114.062 275.544 114.022 275.169 113.961C274.793 113.901 274.437 113.8 274.141 113.699C273.844 113.598 273.587 113.497 273.37 113.376C273.153 113.255 273.014 113.154 272.915 113.073C272.817 112.992 272.757 112.851 272.698 112.69C272.658 112.528 272.639 112.306 272.639 112.023C272.639 111.862 272.639 111.7 272.658 111.599C272.658 111.478 272.698 111.398 272.718 111.317C272.738 111.236 272.777 111.196 272.836 111.155C272.896 111.115 272.935 111.115 272.994 111.115C273.093 111.115 273.232 111.175 273.429 111.297C273.627 111.418 273.844 111.559 274.121 111.7C274.398 111.842 274.734 111.983 275.109 112.104C275.485 112.225 275.92 112.286 276.414 112.286C276.79 112.286 277.106 112.245 277.422 112.165C277.738 112.084 277.976 111.963 278.193 111.801C278.411 111.64 278.588 111.438 278.707 111.196C278.826 110.953 278.885 110.671 278.885 110.328C278.885 109.984 278.806 109.702 278.628 109.46C278.45 109.217 278.233 109.015 277.956 108.834C277.679 108.652 277.363 108.49 277.007 108.349C276.651 108.208 276.295 108.067 275.92 107.905C275.544 107.744 275.189 107.582 274.833 107.38C274.477 107.178 274.161 106.956 273.884 106.674C273.607 106.391 273.37 106.068 273.212 105.684C273.034 105.301 272.955 104.836 272.955 104.291C272.955 103.827 273.054 103.363 273.232 102.919C273.41 102.495 273.686 102.111 274.042 101.768C274.398 101.445 274.853 101.182 275.386 100.981C275.92 100.779 276.552 100.678 277.284 100.678C277.6 100.678 277.916 100.698 278.233 100.758C278.549 100.819 278.826 100.88 279.083 100.96C279.34 101.041 279.557 101.122 279.735 101.223C279.913 101.324 280.051 101.405 280.15 101.465C280.249 101.546 280.308 101.606 280.328 101.647C280.348 101.687 280.387 101.768 280.387 101.828C280.387 101.889 280.407 101.97 280.427 102.071C280.427 102.172 280.446 102.293 280.446 102.434C280.446 102.596 280.446 102.717 280.427 102.838C280.427 102.959 280.387 103.04 280.367 103.12C280.348 103.201 280.308 103.242 280.249 103.282C280.209 103.322 280.15 103.322 280.11 103.322C280.031 103.322 279.913 103.282 279.774 103.181C279.616 103.08 279.438 102.979 279.201 102.858C278.964 102.737 278.687 102.636 278.371 102.535C278.055 102.434 277.679 102.394 277.264 102.394C276.888 102.394 276.572 102.434 276.295 102.515C276.019 102.596 275.782 102.717 275.604 102.878C275.426 103.04 275.287 103.221 275.189 103.443C275.09 103.666 275.05 103.888 275.05 104.15C275.05 104.493 275.129 104.796 275.307 105.038C275.485 105.281 275.702 105.482 275.999 105.664C276.295 105.846 276.592 106.007 276.968 106.149C277.323 106.29 277.699 106.431 278.074 106.593C278.45 106.754 278.826 106.916 279.181 107.098C279.537 107.279 279.873 107.521 280.15 107.784C280.427 108.046 280.664 108.369 280.822 108.753C281 109.137 281.079 109.581 281.079 110.106L281.02 110.166Z" fill="white" style="fill:white;fill-opacity:1;"/>
<path d="M294.243 106.875C294.243 107.218 294.164 107.48 293.986 107.622C293.808 107.763 293.61 107.844 293.393 107.844H285.585C285.585 108.51 285.644 109.116 285.783 109.661C285.921 110.206 286.139 110.67 286.435 111.054C286.751 111.437 287.147 111.74 287.641 111.942C288.135 112.144 288.748 112.245 289.459 112.245C290.033 112.245 290.527 112.204 290.962 112.103C291.396 112.003 291.792 111.902 292.108 111.78C292.424 111.659 292.701 111.558 292.899 111.457C293.096 111.357 293.255 111.316 293.373 111.316C293.432 111.316 293.492 111.316 293.531 111.357C293.571 111.397 293.61 111.437 293.65 111.498C293.67 111.558 293.689 111.639 293.709 111.76C293.729 111.881 293.729 112.003 293.729 112.164C293.729 112.285 293.729 112.386 293.729 112.467C293.729 112.548 293.709 112.628 293.689 112.689C293.689 112.749 293.65 112.81 293.63 112.871C293.591 112.931 293.551 112.972 293.512 113.032C293.472 113.073 293.314 113.153 293.077 113.274C292.839 113.396 292.523 113.496 292.148 113.597C291.772 113.698 291.337 113.799 290.843 113.88C290.349 113.961 289.815 114.001 289.262 114.001C288.293 114.001 287.443 113.86 286.712 113.577C285.98 113.295 285.368 112.891 284.854 112.346C284.34 111.801 283.984 111.114 283.727 110.287C283.47 109.459 283.352 108.51 283.352 107.42C283.352 106.33 283.49 105.441 283.747 104.614C284.004 103.786 284.399 103.079 284.893 102.494C285.388 101.909 285.98 101.464 286.692 101.162C287.384 100.859 288.175 100.697 289.044 100.697C289.973 100.697 290.764 100.859 291.416 101.162C292.069 101.464 292.602 101.868 293.037 102.393C293.452 102.898 293.768 103.503 293.966 104.21C294.164 104.896 294.263 105.643 294.263 106.431V106.834L294.243 106.875ZM292.049 106.229C292.069 105.058 291.812 104.149 291.278 103.483C290.744 102.817 289.954 102.494 288.906 102.494C288.372 102.494 287.898 102.595 287.483 102.797C287.068 102.999 286.732 103.281 286.455 103.625C286.178 103.968 285.961 104.371 285.822 104.816C285.664 105.26 285.585 105.744 285.565 106.229H292.029H292.049Z" fill="white" style="fill:white;fill-opacity:1;"/>
<path d="M315.118 113.457C315.118 113.457 315.118 113.598 315.058 113.638C314.999 113.679 314.96 113.719 314.881 113.759C314.802 113.8 314.683 113.82 314.545 113.84C314.406 113.84 314.228 113.86 314.011 113.86C313.793 113.86 313.616 113.86 313.477 113.84C313.339 113.84 313.22 113.8 313.141 113.759C313.062 113.719 313.003 113.679 312.963 113.638C312.924 113.598 312.904 113.537 312.904 113.457V106.108C312.904 105.603 312.864 105.139 312.766 104.715C312.687 104.291 312.528 103.928 312.35 103.625C312.153 103.322 311.916 103.08 311.619 102.918C311.323 102.757 310.967 102.676 310.571 102.676C310.077 102.676 309.563 102.878 309.069 103.262C308.575 103.645 308.002 104.231 307.409 104.998V113.457C307.409 113.457 307.409 113.598 307.35 113.638C307.31 113.679 307.251 113.719 307.172 113.759C307.093 113.8 306.974 113.82 306.836 113.84C306.697 113.84 306.519 113.86 306.302 113.86C306.085 113.86 305.926 113.86 305.788 113.84C305.65 113.82 305.531 113.8 305.452 113.759C305.373 113.719 305.314 113.679 305.274 113.638C305.235 113.598 305.235 113.537 305.235 113.457V106.108C305.235 105.603 305.195 105.139 305.096 104.715C304.997 104.291 304.859 103.928 304.661 103.625C304.464 103.322 304.226 103.08 303.93 102.918C303.633 102.757 303.278 102.676 302.882 102.676C302.388 102.676 301.874 102.878 301.36 103.262C300.846 103.645 300.293 104.231 299.7 104.998V113.457C299.7 113.457 299.7 113.598 299.641 113.638C299.601 113.679 299.542 113.719 299.463 113.759C299.384 113.8 299.265 113.82 299.127 113.84C298.988 113.84 298.81 113.86 298.593 113.86C298.376 113.86 298.198 113.86 298.059 113.84C297.921 113.84 297.802 113.8 297.723 113.759C297.644 113.719 297.585 113.679 297.545 113.638C297.506 113.598 297.506 113.537 297.506 113.457V101.364C297.506 101.364 297.506 101.223 297.545 101.182C297.585 101.142 297.624 101.081 297.704 101.041C297.783 101.001 297.881 100.98 298 100.96C298.119 100.94 298.277 100.96 298.494 100.96C298.712 100.96 298.85 100.96 298.969 100.96C299.087 100.96 299.186 101.001 299.265 101.041C299.344 101.081 299.384 101.122 299.423 101.182C299.463 101.243 299.463 101.283 299.463 101.364V102.959C300.135 102.192 300.767 101.647 301.4 101.283C302.032 100.94 302.665 100.758 303.297 100.758C303.792 100.758 304.226 100.819 304.622 100.94C305.017 101.061 305.353 101.223 305.65 101.425C305.946 101.626 306.203 101.889 306.421 102.171C306.638 102.454 306.796 102.797 306.954 103.14C307.35 102.696 307.725 102.333 308.081 102.03C308.437 101.727 308.773 101.485 309.109 101.283C309.445 101.101 309.761 100.96 310.077 100.879C310.394 100.799 310.71 100.758 311.026 100.758C311.797 100.758 312.43 100.9 312.943 101.162C313.457 101.425 313.873 101.808 314.209 102.252C314.525 102.717 314.762 103.241 314.9 103.847C315.039 104.453 315.098 105.099 315.098 105.785V113.436L315.118 113.457Z" fill="white" style="fill:white;fill-opacity:1;"/>
<path d="M329.962 107.218C329.962 108.268 329.843 109.217 329.626 110.065C329.408 110.913 329.072 111.619 328.637 112.205C328.203 112.79 327.669 113.234 327.017 113.557C326.384 113.88 325.653 114.042 324.823 114.042C324.467 114.042 324.151 114.001 323.854 113.941C323.558 113.88 323.261 113.759 322.984 113.598C322.708 113.436 322.411 113.254 322.134 113.012C321.858 112.77 321.561 112.507 321.245 112.184V118.241C321.245 118.241 321.245 118.382 321.186 118.422C321.146 118.483 321.087 118.523 321.008 118.564C320.929 118.604 320.81 118.624 320.672 118.645C320.533 118.645 320.355 118.665 320.138 118.665C319.921 118.665 319.743 118.665 319.604 118.645C319.466 118.645 319.347 118.604 319.268 118.564C319.189 118.523 319.13 118.483 319.09 118.422C319.051 118.362 319.051 118.301 319.051 118.241V101.343C319.051 101.343 319.051 101.202 319.09 101.142C319.13 101.081 319.169 101.041 319.248 101.02C319.327 100.98 319.426 100.96 319.545 100.94C319.664 100.919 319.822 100.94 320 100.94C320.177 100.94 320.336 100.94 320.454 100.94C320.573 100.94 320.672 100.98 320.751 101.02C320.83 101.061 320.889 101.101 320.909 101.142C320.929 101.182 320.948 101.263 320.948 101.343V102.979C321.304 102.595 321.66 102.272 321.996 101.989C322.332 101.707 322.668 101.485 323.004 101.303C323.34 101.121 323.696 100.98 324.052 100.879C324.407 100.778 324.783 100.738 325.178 100.738C326.048 100.738 326.779 100.899 327.372 101.242C327.985 101.586 328.479 102.05 328.855 102.635C329.23 103.221 329.507 103.907 329.685 104.695C329.863 105.482 329.942 106.31 329.942 107.178L329.962 107.218ZM327.708 107.481C327.708 106.855 327.669 106.269 327.57 105.684C327.471 105.098 327.313 104.594 327.096 104.15C326.878 103.705 326.562 103.342 326.186 103.08C325.811 102.817 325.337 102.676 324.763 102.676C324.487 102.676 324.21 102.716 323.933 102.797C323.656 102.878 323.38 103.019 323.103 103.201C322.826 103.382 322.53 103.625 322.213 103.927C321.897 104.23 321.581 104.594 321.225 105.038V109.843C321.818 110.59 322.391 111.155 322.925 111.538C323.459 111.942 324.032 112.124 324.625 112.124C325.178 112.124 325.633 111.983 326.028 111.72C326.424 111.458 326.74 111.094 326.977 110.65C327.214 110.206 327.392 109.701 327.511 109.136C327.629 108.571 327.689 108.026 327.689 107.46L327.708 107.481Z" fill="white" style="fill:white;fill-opacity:1;"/>
<path d="M340.161 102.151C340.161 102.353 340.161 102.515 340.161 102.656C340.161 102.797 340.141 102.898 340.102 102.979C340.082 103.06 340.042 103.12 340.003 103.161C339.963 103.201 339.904 103.221 339.845 103.221C339.785 103.221 339.687 103.221 339.588 103.161C339.489 103.12 339.37 103.08 339.252 103.04C339.133 102.999 338.975 102.959 338.817 102.918C338.659 102.878 338.481 102.858 338.303 102.858C338.085 102.858 337.868 102.898 337.651 102.999C337.433 103.08 337.216 103.241 336.978 103.443C336.741 103.645 336.504 103.928 336.247 104.271C335.99 104.614 335.713 105.038 335.397 105.523V113.477C335.397 113.477 335.397 113.618 335.338 113.658C335.298 113.699 335.239 113.739 335.16 113.78C335.081 113.82 334.962 113.84 334.824 113.86C334.686 113.86 334.508 113.88 334.29 113.88C334.073 113.88 333.895 113.881 333.757 113.86C333.618 113.86 333.5 113.82 333.421 113.78C333.341 113.739 333.282 113.699 333.243 113.658C333.203 113.618 333.203 113.557 333.203 113.477V101.384C333.203 101.384 333.203 101.243 333.243 101.202C333.282 101.162 333.322 101.101 333.401 101.061C333.48 101.021 333.579 101.001 333.697 100.98C333.816 100.96 333.974 100.98 334.191 100.98C334.409 100.98 334.547 100.98 334.666 100.98C334.784 100.98 334.883 101.021 334.962 101.061C335.041 101.101 335.081 101.142 335.12 101.202C335.16 101.263 335.16 101.303 335.16 101.384V103.14C335.476 102.656 335.793 102.272 336.069 101.949C336.346 101.647 336.623 101.404 336.88 101.223C337.137 101.041 337.394 100.92 337.631 100.859C337.868 100.799 338.125 100.758 338.382 100.758C338.501 100.758 338.619 100.758 338.777 100.758C338.916 100.758 339.074 100.799 339.232 100.839C339.39 100.879 339.528 100.92 339.667 100.96C339.785 101.001 339.884 101.041 339.943 101.102C340.003 101.142 340.023 101.182 340.042 101.223C340.042 101.263 340.082 101.324 340.082 101.384C340.082 101.445 340.102 101.546 340.102 101.667C340.102 101.788 340.102 101.949 340.102 102.151H340.161Z" fill="white" style="fill:white;fill-opacity:1;"/>
<path d="M352.378 106.875C352.378 107.218 352.299 107.48 352.121 107.622C351.943 107.763 351.745 107.844 351.528 107.844H343.72C343.72 108.51 343.779 109.116 343.918 109.661C344.056 110.206 344.273 110.67 344.57 111.054C344.886 111.437 345.281 111.74 345.776 111.942C346.27 112.144 346.883 112.245 347.594 112.245C348.167 112.245 348.662 112.204 349.096 112.103C349.531 112.003 349.927 111.902 350.243 111.78C350.559 111.659 350.836 111.558 351.034 111.457C351.231 111.357 351.389 111.316 351.508 111.316C351.567 111.316 351.627 111.316 351.666 111.357C351.706 111.397 351.745 111.437 351.785 111.498C351.804 111.558 351.824 111.639 351.844 111.76C351.864 111.881 351.864 112.003 351.864 112.164C351.864 112.285 351.864 112.386 351.864 112.467C351.864 112.548 351.844 112.628 351.824 112.689C351.824 112.749 351.785 112.81 351.765 112.871C351.725 112.931 351.686 112.972 351.646 113.032C351.607 113.073 351.449 113.153 351.211 113.274C350.974 113.396 350.658 113.496 350.282 113.597C349.907 113.698 349.472 113.799 348.978 113.88C348.484 113.961 347.95 114.001 347.397 114.001C346.428 114.001 345.578 113.86 344.847 113.577C344.115 113.295 343.503 112.891 342.989 112.346C342.475 111.801 342.119 111.114 341.862 110.287C341.605 109.459 341.486 108.51 341.486 107.42C341.486 106.33 341.625 105.441 341.882 104.614C342.139 103.786 342.534 103.079 343.028 102.494C343.522 101.909 344.115 101.464 344.827 101.162C345.519 100.859 346.309 100.697 347.179 100.697C348.108 100.697 348.899 100.859 349.551 101.162C350.203 101.464 350.737 101.868 351.172 102.393C351.587 102.898 351.903 103.503 352.101 104.21C352.299 104.896 352.397 105.643 352.397 106.431V106.834L352.378 106.875ZM350.203 106.229C350.223 105.058 349.966 104.149 349.432 103.483C348.899 102.817 348.108 102.494 347.06 102.494C346.527 102.494 346.052 102.595 345.637 102.797C345.222 102.999 344.886 103.281 344.609 103.625C344.333 103.968 344.115 104.371 343.977 104.816C343.819 105.26 343.74 105.744 343.72 106.229H350.184H350.203Z" fill="white" style="fill:white;fill-opacity:1;"/>
<path d="M372.795 107.279C372.795 108.268 372.677 109.177 372.42 110.004C372.163 110.832 371.787 111.539 371.273 112.144C370.759 112.75 370.127 113.214 369.376 113.557C368.625 113.901 367.735 114.062 366.747 114.062C365.759 114.062 364.928 113.921 364.197 113.618C363.466 113.315 362.873 112.891 362.378 112.326C361.884 111.761 361.529 111.074 361.291 110.267C361.054 109.459 360.936 108.551 360.936 107.521C360.936 106.492 361.054 105.624 361.311 104.796C361.568 103.968 361.944 103.262 362.438 102.656C362.952 102.05 363.564 101.586 364.335 101.263C365.087 100.94 365.976 100.758 366.984 100.758C367.992 100.758 368.803 100.9 369.534 101.202C370.265 101.505 370.858 101.929 371.352 102.494C371.827 103.06 372.202 103.746 372.44 104.554C372.677 105.361 372.795 106.27 372.795 107.279ZM370.542 107.42C370.542 106.774 370.483 106.148 370.364 105.563C370.246 104.978 370.048 104.473 369.771 104.029C369.494 103.585 369.119 103.241 368.664 102.979C368.19 102.717 367.617 102.595 366.905 102.595C366.253 102.595 365.699 102.717 365.245 102.939C364.79 103.181 364.395 103.504 364.098 103.928C363.802 104.352 363.564 104.856 363.426 105.442C363.288 106.027 363.209 106.653 363.209 107.36C363.209 108.066 363.268 108.652 363.387 109.237C363.505 109.823 363.703 110.327 363.98 110.772C364.256 111.195 364.632 111.559 365.106 111.801C365.581 112.064 366.154 112.185 366.865 112.185C367.498 112.185 368.051 112.064 368.526 111.842C369 111.619 369.376 111.276 369.672 110.852C369.969 110.428 370.186 109.924 370.344 109.338C370.483 108.753 370.562 108.107 370.562 107.42H370.542Z" fill="white" style="fill:white;fill-opacity:1;"/>
<path d="M386.177 113.456C386.177 113.456 386.177 113.598 386.118 113.638C386.078 113.678 386.019 113.719 385.94 113.759C385.861 113.799 385.742 113.82 385.604 113.84C385.465 113.84 385.288 113.86 385.07 113.86C384.853 113.86 384.675 113.86 384.536 113.84C384.398 113.82 384.279 113.799 384.2 113.759C384.121 113.719 384.062 113.678 384.022 113.638C383.983 113.598 383.963 113.537 383.963 113.456V106.37C383.963 105.684 383.904 105.119 383.805 104.695C383.706 104.271 383.548 103.907 383.35 103.604C383.153 103.302 382.896 103.059 382.56 102.898C382.224 102.736 381.868 102.656 381.453 102.656C380.899 102.656 380.366 102.858 379.812 103.241C379.278 103.645 378.705 104.21 378.093 104.977V113.436C378.093 113.436 378.093 113.577 378.033 113.618C377.994 113.658 377.934 113.698 377.855 113.739C377.776 113.779 377.658 113.799 377.519 113.82C377.381 113.82 377.203 113.84 376.986 113.84C376.768 113.84 376.59 113.84 376.452 113.82C376.314 113.82 376.195 113.779 376.116 113.739C376.037 113.698 375.978 113.658 375.938 113.618C375.898 113.577 375.898 113.517 375.898 113.436V101.343C375.898 101.343 375.898 101.202 375.938 101.162C375.978 101.121 376.017 101.061 376.096 101.02C376.175 100.98 376.274 100.96 376.393 100.94C376.511 100.919 376.669 100.94 376.887 100.94C377.104 100.94 377.243 100.94 377.361 100.94C377.48 100.94 377.579 100.98 377.658 101.02C377.737 101.061 377.776 101.101 377.816 101.162C377.855 101.222 377.855 101.263 377.855 101.343V102.938C378.527 102.171 379.18 101.626 379.852 101.263C380.524 100.919 381.176 100.738 381.868 100.738C382.659 100.738 383.331 100.879 383.864 101.142C384.398 101.404 384.833 101.788 385.169 102.232C385.505 102.696 385.742 103.221 385.881 103.827C386.019 104.432 386.098 105.179 386.098 106.047V113.436L386.177 113.456Z" fill="white" style="fill:white;fill-opacity:1;"/>
<path d="M392.325 113.456C392.325 113.456 392.325 113.597 392.266 113.638C392.226 113.678 392.167 113.718 392.088 113.759C392.009 113.799 391.89 113.819 391.752 113.84C391.613 113.84 391.435 113.86 391.218 113.86C391.001 113.86 390.823 113.86 390.684 113.84C390.546 113.84 390.427 113.799 390.348 113.759C390.269 113.718 390.21 113.678 390.17 113.638C390.131 113.597 390.131 113.537 390.131 113.456V95.5089C390.131 95.5089 390.131 95.3676 390.17 95.3272C390.21 95.2868 390.249 95.2263 390.348 95.1859C390.447 95.1455 390.546 95.1253 390.684 95.1052C390.823 95.1052 391.001 95.085 391.218 95.085C391.435 95.085 391.613 95.085 391.752 95.1052C391.89 95.1052 392.009 95.1455 392.088 95.1859C392.167 95.2263 392.226 95.2667 392.266 95.3272C392.305 95.3878 392.325 95.4484 392.325 95.5089V113.456Z" fill="white" style="fill:white;fill-opacity:1;"/>
<path d="M398.749 97.2655C398.749 97.7904 398.65 98.1336 398.452 98.3355C398.255 98.5374 397.899 98.6181 397.385 98.6181C396.871 98.6181 396.535 98.5374 396.337 98.3355C396.14 98.1538 396.061 97.8106 396.061 97.2857C396.061 96.7608 396.159 96.4176 396.357 96.2157C396.555 96.034 396.911 95.9331 397.424 95.9331C397.938 95.9331 398.274 96.034 398.472 96.2157C398.67 96.3974 398.749 96.7406 398.749 97.2655ZM398.512 113.456C398.512 113.456 398.512 113.598 398.452 113.638C398.413 113.678 398.353 113.719 398.274 113.759C398.195 113.799 398.077 113.82 397.938 113.84C397.8 113.84 397.622 113.86 397.405 113.86C397.187 113.86 397.009 113.86 396.871 113.84C396.733 113.84 396.614 113.799 396.535 113.759C396.456 113.719 396.397 113.678 396.357 113.638C396.318 113.598 396.318 113.537 396.318 113.456V101.364C396.318 101.364 396.318 101.243 396.357 101.182C396.397 101.121 396.436 101.081 396.535 101.041C396.634 101 396.733 100.98 396.871 100.96C397.009 100.96 397.187 100.94 397.405 100.94C397.622 100.94 397.8 100.94 397.938 100.96C398.077 100.96 398.195 101 398.274 101.041C398.353 101.081 398.413 101.121 398.452 101.182C398.492 101.243 398.512 101.303 398.512 101.364V113.456Z" fill="white" style="fill:white;fill-opacity:1;"/>
<path d="M412.724 113.456C412.724 113.456 412.724 113.598 412.665 113.638C412.625 113.678 412.566 113.719 412.487 113.759C412.408 113.799 412.289 113.82 412.151 113.84C412.012 113.84 411.834 113.86 411.617 113.86C411.4 113.86 411.222 113.86 411.083 113.84C410.945 113.82 410.826 113.799 410.747 113.759C410.668 113.719 410.609 113.678 410.569 113.638C410.53 113.598 410.51 113.537 410.51 113.456V106.37C410.51 105.684 410.451 105.119 410.352 104.695C410.253 104.271 410.095 103.907 409.897 103.604C409.7 103.302 409.443 103.059 409.107 102.898C408.771 102.736 408.415 102.656 408 102.656C407.446 102.656 406.913 102.858 406.359 103.241C405.825 103.645 405.252 104.21 404.639 104.977V113.436C404.639 113.436 404.639 113.577 404.58 113.618C404.541 113.658 404.481 113.698 404.402 113.739C404.323 113.779 404.205 113.799 404.066 113.82C403.928 113.82 403.75 113.84 403.532 113.84C403.315 113.84 403.137 113.84 402.999 113.82C402.86 113.82 402.742 113.779 402.663 113.739C402.584 113.698 402.524 113.658 402.485 113.618C402.445 113.577 402.445 113.517 402.445 113.436V101.343C402.445 101.343 402.445 101.202 402.485 101.162C402.524 101.121 402.564 101.061 402.643 101.02C402.722 100.98 402.821 100.96 402.939 100.94C403.058 100.919 403.216 100.94 403.434 100.94C403.651 100.94 403.789 100.94 403.908 100.94C404.027 100.94 404.125 100.98 404.205 101.02C404.284 101.061 404.323 101.101 404.363 101.162C404.402 101.222 404.402 101.263 404.402 101.343V102.938C405.074 102.171 405.727 101.626 406.399 101.263C407.071 100.919 407.723 100.738 408.415 100.738C409.205 100.738 409.878 100.879 410.411 101.142C410.945 101.404 411.38 101.788 411.716 102.232C412.052 102.696 412.289 103.221 412.427 103.827C412.566 104.432 412.645 105.179 412.645 106.047V113.436L412.724 113.456Z" fill="white" style="fill:white;fill-opacity:1;"/>
<path d="M426.778 106.875C426.778 107.218 426.699 107.48 426.521 107.622C426.343 107.763 426.146 107.844 425.928 107.844H418.12C418.12 108.51 418.18 109.116 418.318 109.661C418.456 110.206 418.674 110.67 418.97 111.054C419.287 111.437 419.682 111.74 420.176 111.942C420.67 112.144 421.283 112.245 421.995 112.245C422.568 112.245 423.062 112.204 423.497 112.103C423.932 112.003 424.327 111.902 424.643 111.78C424.96 111.659 425.236 111.558 425.434 111.457C425.632 111.357 425.79 111.316 425.908 111.316C425.968 111.316 426.027 111.316 426.066 111.357C426.106 111.397 426.146 111.437 426.185 111.498C426.205 111.558 426.225 111.639 426.244 111.76C426.264 111.881 426.264 112.003 426.264 112.164C426.264 112.285 426.264 112.386 426.264 112.467C426.264 112.548 426.244 112.628 426.225 112.689C426.225 112.749 426.185 112.81 426.165 112.871C426.126 112.931 426.086 112.972 426.047 113.032C426.007 113.073 425.849 113.153 425.612 113.274C425.375 113.396 425.058 113.496 424.683 113.597C424.307 113.698 423.872 113.799 423.378 113.88C422.884 113.961 422.35 114.001 421.797 114.001C420.828 114.001 419.978 113.86 419.247 113.577C418.516 113.295 417.903 112.891 417.389 112.346C416.875 111.801 416.519 111.114 416.262 110.287C416.005 109.459 415.887 108.51 415.887 107.42C415.887 106.33 416.025 105.441 416.282 104.614C416.539 103.786 416.934 103.079 417.429 102.494C417.923 101.909 418.516 101.464 419.227 101.162C419.919 100.859 420.71 100.697 421.579 100.697C422.508 100.697 423.299 100.859 423.951 101.162C424.604 101.464 425.137 101.868 425.572 102.393C425.987 102.898 426.304 103.503 426.501 104.21C426.699 104.896 426.798 105.643 426.798 106.431V106.834L426.778 106.875ZM424.604 106.229C424.624 105.058 424.367 104.149 423.833 103.483C423.299 102.817 422.508 102.494 421.461 102.494C420.927 102.494 420.453 102.595 420.038 102.797C419.623 102.999 419.287 103.281 419.01 103.625C418.733 103.968 418.516 104.371 418.377 104.816C418.219 105.26 418.14 105.744 418.12 106.229H424.584H424.604Z" fill="white" style="fill:white;fill-opacity:1;"/>
<path d="M153.209 55.2751H163.33V59.555C163.33 72.1725 157.894 78.4913 145.164 78.4913C132.435 78.4913 126.762 72.4349 126.762 59.555V35.3294C126.762 22.5908 132.692 16.3931 145.303 16.3931C157.914 16.3931 163.33 22.5706 163.33 35.3294V39.367H153.328V35.3294C153.328 29.1519 150.738 26.2448 145.303 26.2448C139.867 26.2448 137.159 29.1519 137.159 35.3294V59.555C137.159 65.7325 139.887 68.6396 145.184 68.6396C150.481 68.6396 153.209 65.7325 153.209 59.555V55.2751Z" fill="white" style="fill:white;fill-opacity:1;"/>
<path d="M207.566 59.555C207.566 72.5561 201.636 78.4913 189.025 78.4913C176.414 78.4913 170.484 72.5561 170.484 59.555V35.3294C170.484 22.3283 176.414 16.3931 189.025 16.3931C201.636 16.3931 207.566 22.3283 207.566 35.3294V59.555ZM197.189 35.3294C197.189 29.1519 194.461 26.2448 189.045 26.2448C183.629 26.2448 180.901 29.1519 180.901 35.3294V59.555C180.901 65.7325 183.629 68.6396 189.045 68.6396C194.461 68.6396 197.189 65.7325 197.189 59.555V35.3294Z" fill="white" style="fill:white;fill-opacity:1;"/>
<path d="M241.921 77.7242V34.5623C241.921 28.627 239.194 25.9824 234.252 25.9824C229.31 25.9824 227.215 28.5059 225.357 34.8247V77.7242H214.723V17.1602H224.606L224.981 25.8612H225.476C228.065 19.3001 232.157 16.3931 238.442 16.3931C246.843 16.3931 252.655 22.0659 252.655 32.5435V77.7242H241.902H241.921Z" fill="white" style="fill:white;fill-opacity:1;"/>
<path d="M287.009 77.7242V34.5623C287.009 28.627 284.281 25.9824 279.34 25.9824C274.398 25.9824 272.303 28.5059 270.445 34.8247V77.7242H259.811V17.1602H269.694L270.069 25.8612H270.564C273.153 19.3001 277.245 16.3931 283.53 16.3931C291.931 16.3931 297.742 22.0659 297.742 32.5435V77.7242H286.989H287.009Z" fill="white" style="fill:white;fill-opacity:1;"/>
<path d="M342.097 59.555C342.097 72.1725 336.048 78.4913 323.319 78.4913C310.589 78.4913 304.916 72.4349 304.916 59.555V35.3294C304.916 22.5908 310.846 16.3931 323.457 16.3931C336.068 16.3931 342.117 22.5706 342.117 35.3294V50.3493H315.313V59.8174C315.313 65.8738 318.041 68.902 323.338 68.902C328.636 68.902 331.621 65.8738 331.621 59.8174V56.7892H342.117V59.5752L342.097 59.555ZM331.601 35.0871C331.601 29.0307 329.011 26.0026 323.457 26.0026C317.903 26.0026 315.313 29.0307 315.313 35.0871V42.2741H331.621V35.0871H331.601Z" fill="white" style="fill:white;fill-opacity:1;"/>
<path d="M375.701 55.2751H385.822V59.555C385.822 72.1725 380.386 78.4913 367.656 78.4913C354.927 78.4913 349.254 72.4349 349.254 59.555V35.3294C349.254 22.5908 355.184 16.3931 367.795 16.3931C380.406 16.3931 385.822 22.5706 385.822 35.3294V39.367H375.82V35.3294C375.82 29.1519 373.231 26.2448 367.795 26.2448C362.359 26.2448 359.651 29.1519 359.651 35.3294V59.555C359.651 65.7325 362.379 68.6396 367.676 68.6396C372.974 68.6396 375.701 65.7325 375.701 59.555V55.2751Z" fill="white" style="fill:white;fill-opacity:1;"/>
<path d="M418.93 43.1617H428.062V59.5543C428.062 72.2929 423.99 78.4907 411.498 78.4907C399.006 78.4907 392.957 72.3131 392.957 59.5543V0.383301H403.453V17.1595H428.043V26.87H403.453V59.5543C403.453 65.7318 406.042 68.6389 411.597 68.6389C417.151 68.6389 418.891 65.7318 418.891 59.5543V43.1617H418.93Z" fill="white" style="fill:white;fill-opacity:1;"/>
<path d="M93.6134 18.0279L85.8452 25.6993C76.7526 16.4532 64.2009 10.7602 50.3644 10.7602C36.5279 10.7602 24.1541 16.3927 15.0615 25.5176L7.43164 17.7049C18.5602 6.74279 33.6815 0 50.3644 0C67.0473 0 82.4849 6.86392 93.6332 18.0279H93.6134Z" fill="#73DBB8" style="fill:#73DBB8;fill:color(display-p3 0.4510 0.8588 0.7216);fill-opacity:1;"/>
<path d="M86.1423 98.3555C77.0299 107.783 64.3596 113.597 50.3649 113.597C22.5535 113.597 0 90.5832 0 62.1787C0 47.825 5.77181 34.8239 15.062 25.4971L22.3756 32.9868C15.1213 40.3352 10.6344 50.51 10.6344 61.7749C10.6344 84.1836 28.4242 102.333 50.3452 102.333C61.3156 102.333 71.2581 97.7903 78.4333 90.462L86.1225 98.3354L86.1423 98.3555Z" fill="white" style="fill:white;fill-opacity:1;"/>
<path d="M64.5182 76.1898C60.901 79.8842 55.9001 82.1655 50.3655 82.1655C39.2962 82.1655 30.3223 73.0001 30.3223 61.6949C30.3223 56.022 32.5756 50.8943 36.2324 47.1797L43.546 54.6694C41.7868 56.4662 40.6997 58.9493 40.6997 61.6747C40.6997 67.1456 45.0285 71.5668 50.3852 71.5668C53.0537 71.5668 55.4652 70.4766 57.2244 68.6799L64.538 76.1696L64.5182 76.1898Z" fill="white" style="fill:white;fill-opacity:1;"/>
<path d="M71.6926 39.6489L64.2604 46.9772C60.6629 43.4241 55.7608 41.2438 50.3448 41.2438C44.9288 41.2438 39.8291 43.525 36.2118 47.1992L28.918 39.7297C34.3537 34.0165 41.9441 30.4634 50.3448 30.4634C58.7456 30.4634 66.2766 33.9761 71.6926 39.6489Z" fill="#73DBB8" style="fill:#73DBB8;fill:color(display-p3 0.4510 0.8588 0.7216);fill-opacity:1;"/>
</svg>
