<svg width="237" height="228" viewBox="0 0 237 228" fill="currentColor" xmlns="http://www.w3.org/2000/svg">
<path d="M176.973 228C170.689 228.047 166.122 226.904 161.812 224.629C149.559 218.167 137.224 211.845 125.03 205.278C120.556 202.875 116.503 202.875 112.017 205.301C99.6711 211.962 87.2429 218.494 74.7446 224.851C58.672 233.016 39.8896 224.477 35.486 207.249C34.0843 201.756 35.0188 196.39 35.9065 190.99C37.9506 178.544 39.9947 166.11 42.0505 153.664C42.7513 149.43 41.595 145.919 38.4879 142.863C28.279 132.832 18.0468 122.836 8.03651 112.606C-5.86344 98.4108 -1.0627 75.0708 17.2759 68.0839C21.7379 66.3809 26.7138 65.926 31.4912 65.1912C42.7513 63.4532 54.0232 61.8202 65.3066 60.2806C70.1307 59.6274 73.2962 57.2129 75.4104 52.8271C81.3558 40.5214 87.4998 28.3207 93.5738 16.0733C98.6782 5.71546 106.96 -0.0233186 118.582 9.80952e-06C130.216 0.0233382 138.439 5.83211 143.555 16.1782C149.652 28.5073 155.855 40.7897 161.847 53.1654C163.973 57.5511 167.15 59.814 172.009 60.4789C186.003 62.3918 199.996 64.4097 213.931 66.6842C224.724 68.4455 232.106 74.8141 235.47 85.137C238.869 95.5881 236.44 105.083 228.707 112.921C220.951 120.783 212.926 128.364 205.019 136.074C202.928 138.104 200.907 140.227 198.734 142.152C195.3 145.196 194.167 148.893 194.95 153.349C196.819 163.94 198.641 174.543 200.475 185.146C201.129 188.972 201.865 192.786 202.379 196.623C204.645 213.385 192.38 227.697 176.962 228H176.973ZM220.46 93.2319C220.437 88.0997 216.956 83.9355 211.747 83.1424C198.478 81.1361 185.22 78.9899 171.904 77.3686C160.142 75.9339 151.708 70.4984 146.534 59.6507C140.647 47.3216 134.269 35.2259 128.137 23.0135C126.537 19.8291 124.189 17.6129 120.626 16.9248C115.615 15.9566 111.433 18.1378 108.957 23.0835C102.626 35.7858 96.3421 48.5114 90.0229 61.2254C85.5258 70.2884 78.2254 75.444 68.1918 76.8787C53.8596 78.92 39.5275 81.0195 25.207 83.1541C20.7684 83.8189 17.8366 86.42 16.6568 90.7591C15.4537 95.1682 17.1708 98.6324 20.3245 101.677C30.6152 111.615 40.9058 121.564 51.103 131.607C57.539 137.941 60.5176 145.721 59.1393 154.691C56.9316 169.072 54.3502 183.384 52.0024 197.743C51.7337 199.364 51.6286 201.126 51.9907 202.712C53.5326 209.547 60.6928 212.685 67.1989 209.337C79.4402 203.027 91.6348 196.658 103.783 190.173C113.337 185.076 122.799 184.924 132.377 189.986C144.793 196.53 157.222 203.027 169.65 209.536C173.586 211.6 177.499 211.647 181.143 209.011C184.718 206.433 185.921 202.759 185.208 198.501C183.047 185.636 181.12 172.712 178.527 159.939C176.016 147.575 178.971 137.498 188.397 128.901C198.115 120.036 207.296 110.577 216.734 101.409C219.059 99.1573 220.554 96.5795 220.46 93.2552V93.2319Z" fill="CurrentColor" style="fill:currentColor"/>
</svg>
