<svg width="55" height="58" viewBox="0 0 55 58" fill="none" xmlns="http://www.w3.org/2000/svg">
<path d="M15.6408 14.3358C16.2184 14.3358 16.6867 13.841 16.6867 13.2306C16.6867 12.6201 16.2184 12.1253 15.6408 12.1253C15.0632 12.1253 14.5949 12.6201 14.5949 13.2306C14.5949 13.841 15.0632 14.3358 15.6408 14.3358Z" fill="white" style="fill:white;fill-opacity:1;"/>
<path d="M17.1408 18.3442C17.1408 17.5158 16.4692 16.8442 15.6408 16.8442C14.8124 16.8442 14.1408 17.5158 14.1408 18.3442H15.6408H17.1408ZM14.1408 40.42C14.1408 41.2484 14.8124 41.92 15.6408 41.92C16.4692 41.92 17.1408 41.2484 17.1408 40.42H15.6408H14.1408ZM38.5037 40.42C38.5037 41.2484 39.1752 41.92 40.0037 41.92C40.8321 41.92 41.5037 41.2484 41.5037 40.42H40.0037H38.5037ZM40.0037 26.2579L41.5037 26.2579L41.5037 26.2555L40.0037 26.2579ZM31.8874 17.6811L31.8901 16.1811L31.8874 16.1811L31.8874 17.6811ZM22.2571 40.42C22.2571 41.2484 22.9287 41.92 23.7571 41.92C24.5855 41.92 25.2571 41.2484 25.2571 40.42H23.7571H22.2571ZM25.2571 18.3442C25.2571 17.5158 24.5855 16.8442 23.7571 16.8442C22.9287 16.8442 22.2571 17.5158 22.2571 18.3442H23.7571H25.2571ZM50.3095 1.5V0V1.5ZM4.28911 1.5L4.28911 0L4.28911 1.5ZM1.5 4.44737H0H1.5ZM1.5 53.079H0H1.5ZM16.6867 13.2306H15.1867C15.1867 13.0916 15.3131 12.8358 15.6408 12.8358V14.3358V15.8358C17.1238 15.8358 18.1867 14.5903 18.1867 13.2306H16.6867ZM15.6408 14.3358V12.8358C15.9685 12.8358 16.0949 13.0916 16.0949 13.2306H14.5949H13.0949C13.0949 14.5903 14.1578 15.8358 15.6408 15.8358V14.3358ZM14.5949 13.2306H16.0949C16.0949 13.3695 15.9685 13.6253 15.6408 13.6253V12.1253V10.6253C14.1578 10.6253 13.0949 11.8708 13.0949 13.2306H14.5949ZM15.6408 12.1253V13.6253C15.3131 13.6253 15.1867 13.3695 15.1867 13.2306H16.6867H18.1867C18.1867 11.8708 17.1238 10.6253 15.6408 10.6253V12.1253ZM15.6408 18.3442H14.1408V40.42H15.6408H17.1408V18.3442H15.6408ZM40.0037 40.42H41.5037V26.2579H40.0037H38.5037V40.42H40.0037ZM40.0037 26.2579L41.5037 26.2555C41.4994 23.6108 40.5041 21.0603 38.7119 19.1665L37.6224 20.1975L36.5329 21.2285C37.7833 22.5499 38.5006 24.3579 38.5037 26.2603L40.0037 26.2579ZM37.6224 20.1975L38.7119 19.1665C36.9171 17.2698 34.4659 16.1857 31.8901 16.1811L31.8874 17.6811L31.8846 19.1811C33.6117 19.1842 35.2851 19.9098 36.5329 21.2285L37.6224 20.1975ZM31.8874 17.6811L31.8874 16.1811C29.3086 16.1811 26.8531 17.2631 25.0547 19.1603L26.1433 20.1923L27.2319 21.2242C28.4822 19.9053 30.1584 19.1811 31.8874 19.1811L31.8874 17.6811ZM26.1433 20.1923L25.0547 19.1603C23.259 21.0547 22.2614 23.6079 22.2571 26.2555L23.7571 26.2579L25.2571 26.2603C25.2602 24.3558 25.979 22.5459 27.2319 21.2242L26.1433 20.1923ZM23.7571 26.2579H22.2571V40.42H23.7571H25.2571V26.2579H23.7571ZM23.7571 26.2579H25.2571V18.3442H23.7571H22.2571V26.2579H23.7571ZM50.3095 1.5V0H4.28911V1.5V3H50.3095V1.5ZM4.28911 1.5L4.28911 0C3.12402 0 2.02457 0.489856 1.2274 1.33226L2.31691 2.36326L3.40642 3.39427C3.65537 3.13119 3.97477 3 4.28911 3L4.28911 1.5ZM2.31691 2.36326L1.2274 1.33226C0.432895 2.17185 0 3.29375 0 4.44737L1.5 4.44737L3 4.44737C3 4.03761 3.15481 3.66016 3.40642 3.39427L2.31691 2.36326ZM1.5 4.44737H0V53.079H1.5H3V4.44737H1.5ZM1.5 53.079H0C0 54.2326 0.432894 55.3545 1.2274 56.1941L2.31691 55.1631L3.40642 54.1321C3.15481 53.8662 3 53.4887 3 53.079H1.5ZM2.31691 55.1631L1.2274 56.1941C2.02458 57.0365 3.12402 57.5263 4.28911 57.5263V56.0263V54.5263C3.97476 54.5263 3.65537 54.3951 3.40642 54.1321L2.31691 55.1631ZM4.28911 56.0263V57.5263H50.3095V56.0263V54.5263H4.28911V56.0263ZM50.3095 56.0263V57.5263C51.4745 57.5263 52.574 57.0365 53.3712 56.1941L52.2817 55.1631L51.1922 54.1321C50.9432 54.3951 50.6238 54.5263 50.3095 54.5263V56.0263ZM52.2817 55.1631L53.3712 56.1941C54.1657 55.3545 54.5986 54.2326 54.5986 53.079H53.0986H51.5986C51.5986 53.4887 51.4438 53.8662 51.1922 54.1321L52.2817 55.1631ZM53.0986 53.079H54.5986V4.44737H53.0986H51.5986V53.079H53.0986ZM53.0986 4.44737H54.5986C54.5986 3.29375 54.1657 2.17185 53.3712 1.33226L52.2817 2.36326L51.1922 3.39427C51.4438 3.66015 51.5986 4.03761 51.5986 4.44737H53.0986ZM52.2817 2.36326L53.3712 1.33226C52.574 0.489855 51.4746 0 50.3095 0L50.3095 1.5L50.3095 3C50.6238 3 50.9432 3.1312 51.1922 3.39427L52.2817 2.36326Z" fill="white" style="fill:white;fill-opacity:1;"/>
</svg>
