<svg width="56" height="56" viewBox="0 0 56 56" fill="none" xmlns="http://www.w3.org/2000/svg">
<path d="M28 0C23.098 0.00127037 18.2822 1.28903 14.0339 3.73458C9.78554 6.18013 6.25355 9.6978 3.79087 13.936C1.3282 18.1742 0.0211144 22.9846 0.000253671 27.8862C-0.020607 32.7878 1.24549 37.6091 3.672 41.8681L1.15077 50.6922C0.986182 51.2683 0.978662 51.8779 1.12899 52.4579C1.27931 53.0379 1.582 53.5671 2.00571 53.9907C2.42941 54.4144 2.9587 54.717 3.53874 54.8673C4.11877 55.0176 4.72844 55.01 5.30457 54.8454L14.1292 52.3245C17.8549 54.4484 22.0187 55.6883 26.2994 55.9484C30.5801 56.2086 34.8634 55.482 38.8189 53.8249C42.7744 52.1677 46.2964 49.6242 49.1132 46.3906C51.93 43.1569 53.9664 39.3195 55.0652 35.1743C56.1641 31.0291 56.2961 26.6869 55.451 22.4827C54.6059 18.2784 52.8064 14.3244 50.1912 10.9256C47.576 7.52688 44.215 4.77419 40.3675 2.87989C36.5199 0.985587 32.2886 0.000292298 28 0ZM28 53.7564C23.3735 53.7595 18.8318 52.515 14.8533 50.1538C14.7221 50.0757 14.5764 50.0253 14.425 50.0056C14.2736 49.986 14.1198 49.9975 13.9731 50.0395L4.68905 52.6919C4.497 52.7468 4.29377 52.7493 4.10043 52.6992C3.90709 52.6491 3.73066 52.5482 3.58945 52.4069C3.44823 52.2657 3.34735 52.0893 3.29727 51.8959C3.24719 51.7026 3.24974 51.4994 3.30463 51.3073L5.95698 42.0242C5.99889 41.8775 6.01037 41.7237 5.99072 41.5724C5.97106 41.421 5.92069 41.2753 5.84268 41.1441C2.94121 36.2562 1.73792 30.5459 2.42024 24.9029C3.10257 19.2599 5.6322 14.0009 9.61508 9.94532C13.598 5.8897 18.8104 3.26513 24.4405 2.48046C30.0706 1.69579 35.8021 2.79508 40.7423 5.60709C45.6824 8.4191 49.5538 12.7859 51.7533 18.0273C53.9528 23.2687 54.3569 29.0903 52.9027 34.5853C51.4485 40.0803 48.2177 44.94 43.7134 48.4076C39.2092 51.8751 33.6845 53.7557 28 53.7564ZM42.1432 33.1898L36.4145 29.9164C35.8962 29.6206 35.3085 29.4681 34.7118 29.4744C34.115 29.4807 33.5307 29.6458 33.0188 29.9525L29.153 32.2719C26.8127 31.0863 24.9116 29.1852 23.7259 26.8451L26.0453 22.9795C26.3521 22.4677 26.5171 21.8834 26.5234 21.2867C26.5298 20.6901 26.3772 20.1024 26.0814 19.5842L22.808 13.8558C22.5407 13.3894 22.1551 13.0018 21.6902 12.732C21.2253 12.4622 20.6974 12.3198 20.1599 12.3192C17.7895 12.3197 15.5159 13.2593 13.8366 14.9322C12.1574 16.605 11.2093 18.875 11.1999 21.2452C11.1955 24.3365 11.8007 27.3982 12.9807 30.2554C14.1607 33.1126 15.8925 35.7092 18.0769 37.8966C20.2613 40.084 22.8556 41.8194 25.7113 43.0034C28.567 44.1874 31.6281 44.7969 34.7196 44.797H34.7532C37.1236 44.7875 39.3937 43.8395 41.0667 42.1604C42.7397 40.4812 43.6793 38.2078 43.6799 35.8376C43.6793 35.3001 43.5369 34.7722 43.2671 34.3074C42.9973 33.8425 42.6096 33.457 42.1432 33.1898ZM34.7501 42.5571H34.7197C31.9227 42.5571 29.1531 42.0057 26.5693 40.9345C23.9855 39.8633 21.6383 38.2932 19.6619 36.3141C17.6855 34.335 16.1187 31.9858 15.051 29.4007C13.9834 26.8156 13.4359 24.0453 13.4399 21.2485C13.4476 19.4715 14.159 17.7699 15.4185 16.5162C16.6779 15.2625 18.3827 14.5588 20.1599 14.559C20.3026 14.5592 20.4428 14.597 20.5663 14.6686C20.6897 14.7402 20.7921 14.8431 20.8632 14.9669L24.1366 20.6956C24.2352 20.8684 24.286 21.0642 24.2839 21.2631C24.2818 21.462 24.2268 21.6567 24.1246 21.8273L21.4956 26.2086C21.4026 26.3634 21.3485 26.5385 21.3379 26.7188C21.3273 26.8991 21.3604 27.0793 21.4345 27.244C22.8963 30.4973 25.5006 33.1015 28.7541 34.5632C28.9189 34.6373 29.0991 34.6705 29.2795 34.6598C29.4598 34.6491 29.6349 34.595 29.7898 34.5019L34.1711 31.8733C34.3417 31.771 34.5365 31.716 34.7354 31.7138C34.9344 31.7117 35.1303 31.7625 35.3031 31.861L41.032 35.1346C41.1558 35.2056 41.2587 35.3079 41.3303 35.4313C41.402 35.5548 41.4397 35.6949 41.4399 35.8376C41.4401 37.6145 40.7363 39.3192 39.4825 40.5786C38.2288 41.8379 36.5272 42.5493 34.7501 42.5571Z" fill="white" style="fill:white;fill-opacity:1;"/>
</svg>
